<svg width="24px" height="24px" viewBox="0 0 24 24" fill="none" xmlns="http://www.w3.org/2000/svg">
<path d="M12.7449 4.5C12.7449 4.08579 12.4091 3.75 11.9949 3.75C11.5807 3.75 11.2449 4.08579 11.2449 4.5V5.3032C8.70078 5.66724 6.74513 7.85523 6.74513 10.5V13.65L5.79536 14.7897C4.9812 15.7667 5.67593 17.25 6.94769 17.25H17.0426C18.3143 17.25 19.0091 15.7667 18.1949 14.7897L17.2451 13.65V10.5C17.2451 7.85506 15.2892 5.66694 12.7449 5.30313V4.5Z" fill="#3A52EE"/>
<path d="M7.16002 4.42641C7.30406 4.81477 7.10599 5.24636 6.71762 5.3904C6.2323 5.57039 5.82389 5.91221 5.56122 6.35823C5.29856 6.80426 5.19771 7.3272 5.27568 7.83892C5.33808 8.2484 5.0567 8.63094 4.64722 8.69334C4.23773 8.75573 3.85519 8.47436 3.7928 8.06487C3.66284 7.21202 3.83092 6.34043 4.2687 5.59706C4.70647 4.85369 5.38717 4.28399 6.19603 3.984C6.5844 3.83997 7.01599 4.03804 7.16002 4.42641Z" fill="#3A52EE"/>
<path d="M16.84 4.42641C16.984 4.03804 17.4156 3.83997 17.804 3.984C18.6128 4.28399 19.2935 4.85369 19.7313 5.59706C20.1691 6.34043 20.3372 7.21202 20.2072 8.06487C20.1448 8.47436 19.7623 8.75573 19.3528 8.69334C18.9433 8.63094 18.6619 8.2484 18.7243 7.83892C18.8023 7.3272 18.7015 6.80426 18.4388 6.35823C18.1761 5.91221 17.7677 5.57039 17.2824 5.3904C16.894 5.24636 16.696 4.81477 16.84 4.42641Z" fill="#3A52EE"/>
<path d="M9.34803 19.9017C9.01645 19.5701 8.75015 19.1794 8.56274 18.75H15.4366C15.2492 19.1794 14.9829 19.5701 14.6513 19.9017C14.3031 20.2499 13.8897 20.5261 13.4347 20.7145C12.9798 20.903 12.4921 21 11.9997 21C11.5072 21 11.0196 20.903 10.5646 20.7145C10.1096 20.5261 9.69624 20.2499 9.34803 19.9017Z" fill="#3A52EE"/>
</svg>
