<svg xmlns="http://www.w3.org/2000/svg" width="23.675" height="17.342" viewBox="0 0 23.675 17.342">
  <g id="email" transform="translate(0 -24.61)">
    <path id="Pfad_26" data-name="Pfad 26" d="M20.683,24.61H2.992A3,3,0,0,0,0,27.6V38.96a3,3,0,0,0,2.992,2.992H20.683a3,3,0,0,0,2.992-2.992V27.6A3,3,0,0,0,20.683,24.61Zm-.467,1.93-8.378,6.472L3.46,26.54Zm.467,13.482H2.992A1.063,1.063,0,0,1,1.93,38.96V27.8L11.248,35a.965.965,0,0,0,1.18,0l9.318-7.2V38.96A1.063,1.063,0,0,1,20.683,40.022Z" fill="#1d1d1b"/>
  </g>
</svg>
